<svg fill="none" height="16" viewBox="0 0 16 16" width="16" xmlns="http://www.w3.org/2000/svg"><g fill="#212121"><path d="m5.5 4.5c0-1.38071 1.11929-2.5 2.5-2.5s2.5 1.11929 2.5 2.5v3.5c0 1.38071-1.11929 2.5-2.5 2.5s-2.5-1.11929-2.5-2.5zm2.5-1.5c-.82843 0-1.5.67157-1.5 1.5v3.5c0 .82843.67157 1.5 1.5 1.5s1.5-.67157 1.5-1.5v-3.5c0-.82843-.67157-1.5-1.5-1.5z"/><path d="m4 7.5c.27614 0 .5.22386.5.5 0 1.933 1.567 3.5 3.5 3.5s3.5-1.567 3.5-3.5c0-.27614.2239-.5.5-.5s.5.22386.5.5c0 2.3163-1.75 4.2238-4 4.4725v1.0275c0 .2761-.22386.5-.5.5s-.5-.2239-.5-.5v-1.0275c-2.24998-.2487-4-2.1562-4-4.4725 0-.27614.22386-.5.5-.5z"/></g></svg>