<svg width="36" height="34" viewBox="0 0 36 34" fill="none" xmlns="http://www.w3.org/2000/svg">
<path d="M7 14.5H15.5V7C15.5 3.96243 13.0376 1.5 10 1.5H7C3.96243 1.5 1.5 3.96243 1.5 7V9C1.5 12.0376 3.96243 14.5 7 14.5Z" stroke="black" stroke-width="3"/>
<path d="M29 14.5H20.5V7C20.5 3.96243 22.9624 1.5 26 1.5H29C32.0376 1.5 34.5 3.96243 34.5 7V9C34.5 12.0376 32.0376 14.5 29 14.5Z" stroke="black" stroke-width="3"/>
<path d="M7 19.5H15.5V27C15.5 30.0376 13.0376 32.5 10 32.5H7C3.96243 32.5 1.5 30.0376 1.5 27V25C1.5 21.9624 3.96243 19.5 7 19.5Z" stroke="black" stroke-width="3"/>
<path d="M29 19.5H20.5V27C20.5 30.0376 22.9624 32.5 26 32.5H29C32.0376 32.5 34.5 30.0376 34.5 27V25C34.5 21.9624 32.0376 19.5 29 19.5Z" stroke="black" stroke-width="3"/>
</svg>
