<svg fill="none" height="24" viewBox="0 0 24 24" width="24" xmlns="http://www.w3.org/2000/svg"><path clip-rule="evenodd" d="m12 2.75c-5.10863 0-9.25 4.14137-9.25 9.25 0 5.1086 4.14137 9.25 9.25 9.25 5.1086 0 9.25-4.1414 9.25-9.25 0-5.10863-4.1414-9.25-9.25-9.25zm5.4805 18.5c3.1549-1.8733 5.2695-5.3147 5.2695-9.25 0-5.93706-4.8129-10.75-10.75-10.75-5.93706 0-10.75 4.81294-10.75 10.75 0 5.9371 4.81294 10.75 10.75 10.75h10c.4142 0 .75-.3358.75-.75s-.3358-.75-.75-.75zm-5.4805-14.5c-.4142 0-.75.33579-.75.75s.3358.75.75.75.75-.33579.75-.75-.3358-.75-.75-.75zm-2.25.75c0-1.24264 1.0074-2.25 2.25-2.25s2.25 1.00736 2.25 2.25-1.0074 2.25-2.25 2.25-2.25-1.00736-2.25-2.25zm-2.25 3.75c-.41421 0-.75.3358-.75.75s.33579.75.75.75.75-.3358.75-.75-.33579-.75-.75-.75zm-2.25.75c0-1.2426 1.00736-2.25 2.25-2.25s2.25 1.0074 2.25 2.25-1.00736 2.25-2.25 2.25-2.25-1.0074-2.25-2.25zm11.25-.75c-.4142 0-.75.3358-.75.75s.3358.75.75.75.75-.3358.75-.75-.3358-.75-.75-.75zm-2.25.75c0-1.2426 1.0074-2.25 2.25-2.25s2.25 1.0074 2.25 2.25-1.0074 2.25-2.25 2.25-2.25-1.0074-2.25-2.25zm-2.25 3.75c-.4142 0-.75.3358-.75.75s.3358.75.75.75.75-.3358.75-.75-.3358-.75-.75-.75zm-2.25.75c0-1.2426 1.0074-2.25 2.25-2.25s2.25 1.0074 2.25 2.25-1.0074 2.25-2.25 2.25-2.25-1.0074-2.25-2.25z" fill="#1c274c" fill-rule="evenodd"/></svg>