<svg fill="none" height="24" width="24" xmlns="http://www.w3.org/2000/svg"><g stroke="#000" stroke-width="1.5"><g stroke-miterlimit="10"><path d="m4.2 7h14.4c1.32 0 2.4 1.08 2.4 2.4v9.2c0 1.32-1.08 2.4-2.4 2.4h-13.2c-1.32 0-2.4-1.08-2.4-2.4v-10.4c0-.66.54-1.2 1.2-1.2z"/><path d="m3 8.5v-3" stroke-linecap="round"/><path d="m16.49 3-11.99 1c-.83 0-1.5.67-1.5 1.5s.67 1.5 1.5 1.5h14.5v-1.62c0-1.32-1.12-2.38-2.51-2.38z"/><path d="m21 11h-6.286c-.947 0-1.714.716-1.714 1.6v2.8c0 .884.768 1.6 1.714 1.6h6.286" stroke-linecap="round"/></g><path d="m16 14h.01" stroke-linecap="round" stroke-linejoin="round"/></g></svg>